<?xml version="1.0" standalone="no"?>
<!DOCTYPE svg PUBLIC "-//W3C//DTD SVG 20010904//EN"
 "http://www.w3.org/TR/2001/REC-SVG-20010904/DTD/svg10.dtd">
<svg version="1.0" xmlns="http://www.w3.org/2000/svg"
 width="540.000000pt" height="376.000000pt" viewBox="0 0 540.000000 376.000000"
 preserveAspectRatio="xMidYMid meet">

<g transform="translate(0.000000,376.000000) scale(0.100000,-0.100000)"
fill="#007aff" stroke="none">
<path d="M475 3314 c-42 -21 -322 -302 -340 -340 -19 -41 -19 -85 0 -132 11
-26 367 -388 1213 -1235 658 -659 1217 -1211 1241 -1227 61 -41 121 -41 182 0
24 16 583 568 1241 1227 846 847 1202 1209 1213 1235 19 47 19 91 0 132 -20
42 -312 331 -348 345 -37 14 -102 14 -130 0 -12 -6 -482 -471 -1044 -1033
l-1023 -1021 -1022 1021 c-563 562 -1033 1027 -1045 1033 -31 16 -103 13 -138
-5z"/>
</g>
</svg>
